<svg xmlns="http://www.w3.org/2000/svg" version="1.1" xmlns:xlink="http://www.w3.org/1999/xlink" width="1000" height="1000"><g clip-path="url(#SvgjsClipPath1138)"><rect width="1000" height="1000" fill="#fef1d0"></rect><g transform="matrix(3.6036036036036037,0,0,3.6036036036036037,100,100)"><svg xmlns="http://www.w3.org/2000/svg" version="1.1" xmlns:xlink="http://www.w3.org/1999/xlink" width="222" height="222"><svg xmlns="http://www.w3.org/2000/svg" version="1.1" viewBox="-23 409 222 222">
<path fill="#0042AF" d="M101.448 420.494c25.904-1.477 39.039 23.854 49.429 43.634 1.105 2.105 3.482 9.149 5.005 10.021 3.796 2.177 8.815-0.532 13.832 1.774 7.854 7.471-5.965 11.971-6.418 13.579-2.498 8.883 3.655 22.113 4.373 31.996 1.601 22.040-0.321 46.612-14.649 64.548-25.984 34.607-76.903 23.889-81.834-21.75-6.962 16.775-13.023 37.893-34.855 40.65-21.942 2.772-34.448-14.762-35.904-34.613-2.355-32.090 5.398-65.674 14.555-96.272 2.378-7.932 4.923-18.047 10.107-24.444 8.629-3.64 10.906-3.556 20.016-3.298 5.012 1.934 6.388 3.709 4.431 9.109-1.667 4.603-3.778 9.067-5.652 13.592-3.246 7.636-6.042 15.457-8.372 23.422-7.044 24.22-12.427 48.905-11.71 74.226 0.129 4.529 0.114 9.499 1.313 13.898 0.979 3.59 3.055 8.778 6.56 10.605 2.303 1.201 4.864 1.569 7.326 0.651 15.599-5.823 23.861-45.355 27.75-60.38 1.182-4.563 1.928-10.076 4.015-14.273 1.359-2.732 4.371-4.036 7.174-4.774 3.773-0.994 10.017-1.523 13.344 1.030 6.675 5.121 2.321 46.959 4.477 57.675 1.537 7.636 5.18 14.777 11.949 19.035 4.029 2.533 8.688 3.515 13.343 2.371 7.769-1.909 13.988-8.368 17.849-15.093 10.746-18.727 12.48-59.911 6.121-80.429-0.282-0.909-0.961-3.408-1.601-4.1-2.276-2.463-19.387-4.105-23.494-5.268-5.213-1.474-10.57-3.51-15.349-6.073-9.678-5.192-17.604-16.060-20.647-26.5-2.326-7.975-2.042-16.74 2.334-23.982 3.895-6.446 8.044-8.758 15.181-10.564zM135.047 476.222l1.772-0.283c-0.021-2.533-1.975-8.038-3.021-10.422-5.618-12.793-15.512-33.205-31.915-32.792-3.151 4.29-5.106 7.785-3.835 13.167 4.256 18.001 21.861 25.931 36.998 30.33z"></path>
</svg></svg></g></g><defs><clipPath id="SvgjsClipPath1138"><rect width="1000" height="1000" x="0" y="0" rx="250" ry="250"></rect></clipPath></defs></svg>