<svg xmlns="http://www.w3.org/2000/svg" viewBox="457.57 374.57 668.16 854.07"><path fill="#162230" d="M616.081 637.199c1.983.286 2.175.555 3.985 1.5 1.872 4.423-5.504 7.86-9 9.7-15.155 7.978-30.998 14.834-46.558 22.014a8264 8264 0 0 0-80.249 37.415c14.787 17.592 33.84 34.342 49.58 51.588a1617 1617 0 0 1 114.041-56.79c3.439-1.53 7.773-3.305 11.396-1.957.492 1.116.832 1.265.41 2.544-3.432 10.386-99.86 49.514-116.21 59.66-.258.16-.511.324-.767.486 9.166 5.253 22.302 11.178 32.084 15.83l65.285 30.397 100.064 47.047c18.063 8.532 35.124 17.094 53.434 25.294 14.804-7.036 29.863-15.015 44.738-22.265a5795 5795 0 0 1 94.69-44.906l63.673-29.752c13.38-6.284 33.146-15.207 45.218-23.074-9.713-5.667-22.453-11.317-32.804-16.247l-52.457-24.896c-7.556-3.568-33.03-13.028-33.723-20.954l1.012-1.09c2.448-.55 5.482-.144 7.77.863 35.236 15.504 69.813 32.77 104.612 49.279 5.652 2.68 11.153 5.654 16.952 7.872l.794.294c7.414-7.003 14.868-15.068 21.99-22.472 7.612-7.912 16.525-16.356 23.254-24.88-5.783-3.544-13.485-6.998-19.688-9.89-28.67-13.372-57.015-27.5-85.973-40.235-5.664-2.492-18.25-7.942-20.544-13.866 1.361-2.746 5.263-2.927 7.804-1.873 31.309 12.983 61.35 28.685 92.256 42.647 7.642 3.676 33.488 15.23 38.2 20.513-.846 7.679-38.141 41.093-47.608 55.16l-.639.96c16.069 24.24 49.553 55.437 62.622 79.783-14.628 10.04-41.645 19.799-59.375 30.477-.495 15.414.11 34.226.229 49.87.561 38.846.693 77.7.394 116.55-.226 15.121-.292 40.908-1.956 55.303-7.52 5.606-20.12 11.25-28.73 15.576-18.048 9.066-36.666 17.305-54.804 26.184a12439 12439 0 0 1-186.734 91.782c-12.205-4.476-30.656-14.028-42.59-19.824l-67.543-32.675c-54.723-26.633-113.368-53.42-167.088-81.275-1.82-25.495-.588-64.279-.518-90.689q-.295-65.065.312-130.128c-19.803-11.462-40.743-18.505-59.753-31.018 6.774-11.06 22.688-28.797 31.507-38.958 10.805-12.45 24.628-29.762 36.24-40.598-12.277-11.914-44.858-43.276-53.65-57.462 10.666-6.678 27.168-13.72 38.768-19.535 33.796-16.95 72.344-31.81 105.647-49.28m-90.166 450.75c18.55 9.612 175.83 87.333 181.273 87.417l2.83-2.245.843.551c-.077 3.434-.564 2.614 1.038 5.013 24.177 11.91 53.595 25.423 77.009 37.922.07-23.07-.638-47.781-.11-70.562q.921-83.872.305-167.745c-.2-20.817.762-57.93-1.755-77.434-13.901 13.89-25.718 29.378-38.487 44.273-6.658 7.765-14.584 18.148-22.475 24.424-27.683-9.777-45.717-20.124-71.655-31.758-42.61-19.11-86.447-41.716-129.112-59.904 1.012 69.9-.55 140.21.296 210.048M856.837 968.51c-12.885-12.884-23.047-25.613-34.53-39.707-6.245-7.662-17.264-21.308-24.85-27.369 1.03 84.755 1.255 169.518.672 254.278a2826 2826 0 0 0-.12 60.919l174.812-85.425c23.585-11.434 63.97-28.582 85.199-41.713.86-47.42.958-94.852.292-142.274-.167-20.786.369-41.624.075-62.398-.033-2.271-.364-6.578-2.608-7.848-33.051 16.898-65.368 31.63-98.971 47.24-33.01 15.336-64.954 33.411-99.97 44.297M531.85 767.819c-10.064 9.966-23.312 26.42-32.788 37.525-8.591 10.067-22.309 25.23-29.67 35.588 25.02 10.342 53.212 24.374 78.063 36.022l116.743 54.562c18.336 8.685 41.39 20.988 59.397 28.485 2.795-2.838 5.63-5.802 8.169-8.87 17.24-20.845 35.51-41.032 52.783-61.82-7.265-4.85-21.856-11.46-30.121-15.397l-48.31-22.932q-87.451-40.92-174.266-83.163m582.165 71.832c-8.1-10.386-52.594-68.01-59.887-71.706l-2.322.02-159.453 75.833-57.683 26.899c-10.106 4.755-24.619 11.221-33.829 16.87 6.95 7.945 55.751 70.971 60.722 71.248 1.219.068.74.127 1.806-.258 52.976-24.283 105.176-50.47 157.864-74.954l58.882-27.018c8.093-3.748 26.746-12.27 33.9-16.934"/><path fill="#b28557" d="M655.47 984.79c10.874 4.992 10.54 26.412 16.902 40.029 25.121 11.971 45.116 11.065 5.875 30.203 1.15 6.156 5.963 29.3 3.852 33.606l-1.41.447c-5.627-2.143-14.987-13.41-19.493-18.3l-6.831-6.995c-33.456 7.898-33.458 10.499-22.172-25.015-3.493-5.85-7.477-10.489-11.37-15.973-3.135-4.417-12.312-14-7.389-18.865 7.336-1.858 21.754 5.038 29.227 8.025 4.022-10.219 6.758-17.885 12.81-27.162m-8.16 36.864a953 953 0 0 0-25.787-8.875c5.915 6.965 12.915 15.75 18.416 23.094-3.886 9.59-5.812 17.591-8.675 27.446 4.761-1.807 21.325-8.782 24.816-7.903a209.6 209.6 0 0 1 19.383 22.272c-1.063-7.702-3.035-18.063-3.807-25.324 6.35-4.458 12.721-8.3 19.025-12.635-6.92-2.27-23.31-6.8-25.69-13.212-2.321-6.25-3.644-19.998-7.908-26.639-5.145 8.583-6.944 12.343-9.774 21.776"/><path fill="#b28557" d="m540.565 911.641 1.747 1.388c3.791 7.733 2.01 144.646 2.093 164.107 24.174 13.09 49.66 24.577 74.324 36.794 34.183 16.932 68.08 34.449 102.874 50.086 2.574 1.157 11.735 1.238 13.363 2.47 7.087 5.356 23.65 20.45 32.842 19.419 4.895-5.332 2.715-62.7 2.71-73.687l.387-125.335c.059-11.832-1.511-44.089 2.16-52.377l1.158-.39c1.293 1.918 1.174 3.97 1.382 6.345 2.877 15.83 1.053 42.001.959 58.712l-.282 85.292.198 58.703c.065 13.467.365 27.427-.87 40.812-.39 4.22-1.277 6.224-4.086 9.248-9.096-.14-205.675-98.332-232.65-111.62-.445-19.253-2.502-162.16 1.691-169.967"/><path fill="#b28557" d="M558.822 958.572c3.231 2.4 3.412 6.13 3.694 9.954 2.385 32.531-1.935 67.983 1.45 100.241 14.866 5.857 34.934 16.108 49.724 23.233l80.773 39.096c12.689 6.206 42.191 22.33 54.308 24.785 1.457-.603 2.048-.458 2.305-1.646 2.29-10.636 1.627-26.86 1.59-37.719l-.877-98.202c.001-9.063-1.456-40.24 2.708-45.447l1.468-.144c3.02 3.142 1.818 7.147 1.297 11.119-.938 45.143 1.03 90.701.863 135.887-.059 15.893 1.653 30.66-2.89 46.154-16.166-3.409-49.22-21.953-65.547-29.907l-80.92-38.666c-16.566-8.102-33.306-17.012-49.861-25.38-1.51-20.407-1.128-43.543-1.32-64.184-.123-13.254-.71-36.697 1.235-49.174"/><path fill="#b28557" d="M926.906 980.36c6.423 4.568 13.503 24.467 16.563 32.133 5.604-3.392 19.696-9.587 26.119-9.629 2.35 1.073 1.507.238 2.59 2.611-.615 7.504-13.814 24.733-18.481 31.52 2.254 6.974 9.892 24.527 4.712 29.695-6.194 2.096-19.49-2.085-26.474-3.79-2.569 3.046-5.123 6.273-7.644 9.377-4.42 5.012-13.364 16.677-20.356 16.063-5.222-4.701-.094-27.245 1.15-34.505-7.085-2.221-18.546-5.518-23.352-11.255-1.493-5.912 4.3-7.884 9.055-9.778 7.183-2.863 14.393-4.806 21.284-8.467l.973-.523c6.413-13.917 9.196-28.781 13.861-43.452m-34.716 58.987c7.211 4.147 15.082 6.522 21.495 10.37-1.274 8.013-3.364 19.08-3.867 26.949a90.4 90.4 0 0 0 13.865-15.34c9.675-11.293 14.519-4.15 27.109-2.282-5.61-30.57-6.208-20.781 10.843-46.15-7.955 2.125-15.765 4.28-23.254 7.78-2.824-7.04-5.883-15.061-9.442-21.676l-.334.908c-10.742 29.841-2.384 28.353-36.415 39.441"/><path fill="#b28557" d="M1039.659 924.728c4.725 8.274 2.247 133.66 2.193 156.507-8.522 5.736-21.461 11.824-30.925 16.538l-45.104 22.433a5762 5762 0 0 1-153.08 74.692c-1.225-30.493-.316-66.452-.423-97.397l-.93-157.965c.258-2.384.647-3.106 2.385-4.203l1.768.854c.92 1.372 2.016 3.043 2.008 4.75-.243 55.467-.816 110.91-.105 166.396.342 26.618-1.867 52.985 1.776 79.474 29.272-15.32 59.98-29.728 89.65-44.33l73.654-36.97c17.71-8.698 36.884-17.057 54.12-26.137.343-32.977.298-65.958-.132-98.933-.078-16.325-.317-34.093.854-50.399.134-1.88 1.259-3.743 2.29-5.31"/><path fill="#b28557" d="M1021.56 961.878c8.183 10.082 4.904 93.895 3.52 111.265-10.224 7.995-33.933 17.865-46.72 23.869l-93.608 45.006c-15.165 7.108-40.08 16.694-53.256 24.992a7186 7186 0 0 1-.8-183.423c-.09-4.74-.666-7.283 1.976-11.144l1.053.26c2.183 6.738 1.482 52.408 1.489 61.991-.31 41.359-.104 82.72.614 124.074 3.981-2.1 8.436-3.946 12.568-5.813 42.833-19.35 84.38-41.559 127.195-60.924 15.681-7.093 30.683-13.948 45.9-22.014a3512 3512 0 0 1-.84-74.87c.012-7.132-.147-27.608.909-33.27"/><path fill="#b28557" d="m1079 836.836.667 1.053-.794 1.253c-6.359 2.008-7.886 4.955-13.199 7.674-41.234 21.097-83.347 40.324-125.121 60.32-26.5 12.684-52.363 25.732-79.757 36.413l-.572-.996c5.025-6.007 42.347-22.597 51.85-27.116l69.482-32.973c27.442-12.983 54.905-26.427 82.576-38.831 4.767-2.138 10.313-5.001 14.868-6.797"/><path fill="#b28557" d="M503.176 836.65c7.385.925 25.52 9.6 33.182 13.002 33.688 14.952 66.65 31.796 99.81 47.859a3561 3561 0 0 1 56.22 27.497c6.46 3.217 25.278 11.617 28.947 16.18-10.528.97-34.282-12.454-44.86-17.595l-52.613-25.165a6019 6019 0 0 1-79.388-37.83c-12.003-5.896-24.298-11.796-35.943-18.36-3.067-1.73-3.835-2.539-5.355-5.588"/><path fill="#162230" d="M788.077 483.2c7.07 5.299 50.387 90.394 58.675 105.05 37.063 6.742 73.085 12.52 110.207 19.716-2.848 3.087-5.638 6.586-8.435 9.785-22.821 26.107-48.812 49.692-71.446 75.933 4.807 42.408 14.258 72.936 16.119 117.73-14.148-5.845-28.457-13.388-42.168-20.321l-55.69-28.085-7.048-3.512c-14.844 5.818-93.395 49.658-101.581 45.425-2.97-9.441 13.534-96.286 16.122-110.32-10.638-17.546-17.803-23.079-31.18-37.568-14.444-15.646-32.849-33.278-46.291-49.522 20.029-7.809 43.22-10.084 64.539-13.002l42.308-6.215c10.283-24.083 40.419-86.093 55.87-105.094"/><path fill="#e3b26d" d="M792.828 508.113c4.3 5.46 13.194 22.453 16.596 28.888a2612 2612 0 0 1 27.612 53.72c-6.935 11.411-17.546 24.923-25.748 35.753l-18.508 26.55c-.014-20.726-3.694-133.067.048-144.911"/><path fill="#e3b26d" d="M782.055 510.245c1.442 4.813 1.422 41.428 1.437 48.937q.199 45.195-.142 90.392c-5.758-7.317-12.103-16.513-17.667-24.147-8.392-10.454-17.1-23.627-24.648-34.746a1102 1102 0 0 1 27.499-56.08c3.595-6.869 9.236-18.19 13.521-24.356"/><path fill="#e3b26d" d="M792.985 680.403c4.101 2.925 77.912 103.953 80.127 109.978-7.442-1.973-21.874-9.63-29.439-13.425l-51.687-26.38c1.62-23.301.031-46.86 1-70.173"/><path fill="#e3b26d" d="M801.393 672.689c17.776 4.298 50.139 18.406 67.764 25.845 2.433 27.366 9.646 57.163 12.681 85.343-5.597-3.267-73.033-100.03-80.445-111.188"/><path fill="#e3b26d" d="M926.772 622.655c1.012.44.564.065 1.107 1.355-3.805 3.672-8.297 11.159-12.814 16.049-14.958 16.196-30.319 32.382-44.815 48.97-14.563-6.56-29.779-12.077-44.763-17.626l-20.538-7.035c18.771-6.672 38.92-12.904 57.918-19.313a5520 5520 0 0 0 63.905-22.4"/><path fill="#e3b26d" d="m729.755 597.422 1.463-.107c7.042 3.685 39.135 49.978 46.17 59.872-19.283-8.42-39.88-15.048-59.822-21.865-23.125-8.565-48.89-16.678-72.385-24.484 27.98-3.96 56.357-9.918 84.574-13.416"/><path fill="#e3b26d" d="M844.829 596.324c7.348 2.517 25.282 5.176 33.433 6.477 17.025 2.717 32.996 5.214 49.92 8.897-18.398 8.228-45.745 16.686-65.494 23.213-13.436 6.048-46.145 16.084-61.515 21.306z"/><path fill="#e3b26d" d="M651.682 622.432c10.784 1.878 31.585 11.082 43.038 15.022 25.831 8.888 52.165 17.517 77.786 26.888-5.578 2.417-12.461 4.85-18.219 7.052-13.978 5.807-28.195 11.103-42.217 16.924-18.61-19.377-43.938-45.2-60.388-65.886"/><path fill="#e3b26d" d="M783.53 677.377c-1.78 22.736-.947 50.631-.774 73.7-19.423 10.469-40.275 22.16-60.831 29.88-4.438-1.32-5.339-1.33-10-1.407 23.696-34.611 48.335-67.023 71.606-102.173"/><path fill="#e3b26d" d="M711.175 698.286a1242 1242 0 0 1 64.6-24.932c-9.489 14.836-20.209 28.292-30.183 42.706-12.895 18.637-25.242 36.9-38.78 55.103-2.505 3.836-7.107 9.295-10.083 13.036.85-4.454 1.53-9.362 2.242-13.87 2.097-16.403 7.915-57.032 12.204-72.043"/><path fill="#fefefe" d="M698.97 770.33c3.198-.654 5.3-1.637 7.842.833-2.505 3.836-7.107 9.295-10.083 13.036.85-4.454 1.53-9.362 2.242-13.87"/><path fill="#fefefe" d="M711.924 779.55c4.662.078 5.563.087 10 1.406-6.57 3.92-10.823 6.375-17.747 9.575z"/><path fill="#162230" d="M711.932 408.628c8.287.486 29.306 57.59 32.197 66.694.982 3.095-.084 4.562-1.527 6.949-6.884-3.894-29.255-56.59-33.205-67.998-.645-1.864 1.505-4.172 2.535-5.645"/><path fill="#162230" d="M784.914 374.57c3.257.881 4.175.835 5.998 3.002 2.35 15.654 1.67 63.788-1.248 79.307-2.574-.761-2.752-.624-4.712-2.562-3.84-9.574-1.168-66.36-.038-79.748"/><path fill="#162230" d="M860.293 408.724c4.874 2.6 5.079 4.87 3.298 9.724-7.93 21.627-18.549 43.373-28.685 63.959-2.743-1.378-3.297-1.833-4.178-4.124 1.734-9.227 23.764-62.005 29.565-69.559"/><path fill="#162230" d="M615.84 520.09c9.233 2.892 36.495 13.126 42.36 19.647 1.005 2.393.052 4.295-.678 6.923-8.332-2.05-36.858-12.247-41.68-20.056-1.303-2.11-.582-4.2-.002-6.514"/><path fill="#162230" d="M647.684 449.808c9.697 1.966 23.415 14.777 28.78 23.042 3.033 4.673 3.22 5.776 2.195 10.963-9.458-3.815-34.392-22.66-30.975-34.005"/><path fill="#162230" d="M956.385 523.73c3.055-.465 4.742-.63 7.16 1.414l-.148 1.93c-5.036 6.54-26.555 13.641-35.12 16.96-1.304.21-3.301.333-4.675.465-2.965-1.294-2.093-.274-3.322-2.57 2.17-8.223 28.843-16.083 36.105-18.199"/><path fill="#162230" d="M924.22 445.92c3.2.493 3.902 1.108 4.696 3.948-2.186 9.209-19.588 24.706-27.055 31.453-.993.348-1.997.27-3.13.323-7.168-4.89 21.392-31.636 25.489-35.723"/><path fill="#162230" d="M692.935 497.291c13.674-.254 13.182 7.626 5.544 16.13-8.568-.22-14.583-9.573-5.544-16.13"/><path fill="#162230" d="M873.182 498.066c12.949-.377 15.284 4.08 8.676 15.127-11.594 1.715-12.458-6.712-8.676-15.127"/><path fill="#162230" d="M950.266 420.45c6.288 4.397 6.337 7.779 1.794 13.532-8.187-2.887-8.002-8.342-1.794-13.532"/><path fill="#162230" d="M604.835 480.962c4.729.743 6.799.55 9.639 4.102.482 2.833.014 3.337-1.163 5.931-7.89.88-10.242-2.905-8.476-10.033"/><path fill="#162230" d="M961.122 486.178c3.454 1.249 5.191 3.139 7.985 5.543l-6.3 5.876c-2.412-1.011-5.006-3.346-7.113-5.03 1.791-1.915 3.719-4.348 5.428-6.389"/><path fill="#162230" d="M658.841 415.654c7.657 1.549 7.68 5.14 4.375 11.375-8.287-1.014-7.94-5.31-4.375-11.375"/><path fill="#162230" d="M739.794 375.1a4.332 4.332 0 1 1 3.607 7.88 4.332 4.332 0 0 1-3.607-7.88"/><path fill="#162230" d="M909.34 414.163c3.471 1.694 4.011 1.965 4.962 5.756-.496 2.925-1.147 3.344-3.06 5.57-3.32-1.758-3.388-1.91-4.561-4.72.244-3.17.922-3.784 2.66-6.606"/><path fill="#162230" d="M623.836 424.417a4.03 4.03 0 0 1 3.782 7.067 4.028 4.028 0 0 1-6.29-3.603 4.03 4.03 0 0 1 2.508-3.464"/><path fill="#162230" d="M834.804 375.43a3.737 3.737 0 1 1 2.458 6.997 3.735 3.735 0 0 1-2.458-6.998"/><path fill="#162230" d="M683.663 441.268a3.635 3.635 0 1 1 2.65 6.768 3.635 3.635 0 0 1-2.65-6.768"/></svg>