<?xml version="1.0" encoding="utf-8" ?><svg xmlns="http://www.w3.org/2000/svg" xmlns:xlink="http://www.w3.org/1999/xlink" width="1024" height="1024" viewBox="0 0 1024 1024"><path fill="#1E2630" d="M657.639 256.201C666.05 255.859 674.725 258.339 680.921 263.894C697.442 278.705 691.988 302.314 696.289 321.466C697.114 325.138 699.947 329.44 702.018 332.715C706.842 340.342 707.601 347.711 708.234 356.547L747.381 370.37C756.092 373.353 768.812 377.125 776.803 381.066C777.524 393.789 776.076 410.764 775.944 424.093C775.308 436.947 776.236 450.391 774.555 463.12C774.101 466.558 761.358 470.768 758.001 472.892C757.773 492.503 756.817 511.698 756.174 531.252L754.034 605.664C753.145 631.703 753.009 661.108 751.425 686.853C748.962 688.586 743.678 691.374 740.909 692.931C733.605 697.06 726.266 701.126 718.892 705.128L658.545 737.926L571.292 784.826C554.152 794.05 532.889 805.96 515.613 814.234L360.526 733.575L307.98 706.504C300.435 702.617 291.658 698.326 284.287 693.985C283.183 693.335 283.173 691.422 283.066 690.125C281.912 619.884 278.023 548.826 277.485 478.433C271.627 475.557 266.201 474.057 259.796 470.602C259.044 464.488 258.909 457.344 258.766 451.109C258.251 428.64 256.539 406.012 256.044 383.573C260.393 381.202 274.105 376.931 279.476 374.896C293.56 369.559 307.833 364.265 322.033 359.241C322.272 349.778 323.953 340.664 329.054 332.681C330.949 329.716 333.783 325.087 334.419 321.754C337.18 307.49 334.24 289.48 341.166 276.296C363.09 234.555 416.626 274.695 442.186 291.752C447.499 295.298 452.664 301.052 458.004 303.802C461.111 304.128 465.72 301.547 468.686 300.184C466.16 296.797 458.167 288.253 458.88 284.371L459.973 284.528C463.594 286.917 469.66 295.103 471.736 299C477.349 296.461 482.915 294.248 488.628 291.951C486.968 286.782 479.132 265.076 480.831 261.488L481.417 261.463C484.214 264.223 490.354 285.455 492.04 290.679C498.694 287.986 505.394 285.405 512.135 282.939C512.158 278.261 511.653 261.542 513.558 258.224L514.21 258.247C515.914 260.512 515.74 277.45 515.861 281.822C522.159 282.543 529.675 286.063 535.676 288.531C537.698 282.862 542.812 262.676 545.855 259.843L546.594 259.964C546.793 260.452 546.991 260.94 547.19 261.428C545.933 268.068 540.878 283.8 538.725 289.525C544.397 291.679 550.099 293.751 555.83 295.74C558.013 291.548 562.607 285.129 565.282 281.008C565.871 280.1 567.243 279.469 568.399 279.354L568.791 280.101C567.613 285.406 562.401 291.313 559.546 296.551L559.226 297.144C563.723 298.522 568.085 300.306 572.258 302.475C594.687 285.16 628.772 259.844 657.639 256.201Z"/><path fill="#802429" d="M621.301 534.995L622.142 535.727C622.398 537.154 621.95 551.86 621.917 554.343L621.2 605.75L619.696 704.965C619.495 720.719 619.731 737.351 619.136 753.006C615.867 755.256 609.966 758.224 606.246 760.226L582.549 772.845C561.8 783.868 540.227 796.002 519.149 806.158L518.192 805.501C517.51 780.55 518.246 752.956 518.227 727.791L517.941 581.735C551.865 567.121 587.586 550.397 621.301 534.995Z"/><path fill="#27262D" d="M550.086 778.375L551.322 778.749L551.605 779.597C550.213 782.112 533.724 790.067 530.134 791.618L528.793 791.395L528.504 790.65C529.942 788.001 546.38 780.274 550.086 778.375Z"/><path fill="#27262D" d="M575.611 764.851C577.013 764.98 576.537 764.656 577.279 765.516C576.244 767.536 571.322 770.013 569.218 771.197L567.675 770.988L567.348 770.354C568.715 767.993 573.12 766.074 575.611 764.851Z"/><path fill="#802429" d="M409.129 534.516L416.57 537.519L419.268 538.876C421.206 539.752 424.27 541.025 426.026 542.049L429.196 543.419L439.085 547.971L441.677 549.147L451.729 553.638L454.828 554.974C457.789 556.3 460.774 557.573 463.781 558.793L466.991 560.168C469.73 561.488 472.207 562.656 475.014 563.844L477.54 565.155C485.952 568.762 504.953 576.831 512.592 580.936L512.501 806.628C498.138 799.49 483.638 791.734 469.365 784.278C450.957 774.662 431.683 765.22 413.523 755.244C413.222 719.93 411.718 684.438 411.496 649.106C411.442 640.544 411.309 632.132 410.927 623.568L410.762 619.924L410.549 608.576L410.51 604.287C410.569 600.669 410.508 597.05 410.325 593.435C410.29 592.211 410.363 590.626 410.388 589.37C410.307 584.967 410.173 580.565 409.984 576.165L410.024 571.857L409.583 559.673L409.537 555.844L409.441 546.309L409.439 542.761C409.203 540.023 409.189 537.266 409.129 534.516Z"/><path fill="#802429" d="M409.129 534.516L416.57 537.519L419.268 538.876C421.206 539.752 424.27 541.025 426.026 542.049L429.196 543.419L439.085 547.971L441.677 549.147L451.729 553.638L454.828 554.974C457.789 556.3 460.774 557.573 463.781 558.793L466.991 560.168C469.73 561.488 472.207 562.656 475.014 563.844C467.062 570.646 459.537 578.261 451.516 584.856C437.662 596.249 424.393 608.325 410.762 619.924L410.549 608.576L410.51 604.287C410.569 600.669 410.508 597.05 410.325 593.435C410.29 592.211 410.363 590.626 410.388 589.37C410.307 584.967 410.173 580.565 409.984 576.165L410.024 571.857L409.583 559.673L409.537 555.844L409.441 546.309L409.439 542.761C409.203 540.023 409.189 537.266 409.129 534.516Z"/><path fill="#802429" d="M409.129 534.516L416.57 537.519L419.268 538.876C421.206 539.752 424.27 541.025 426.026 542.049L429.196 543.419L439.085 547.971L441.677 549.147L451.729 553.638C439.87 563.02 421.078 578.906 410.388 589.37C410.307 584.967 410.173 580.565 409.984 576.165L410.024 571.857L409.583 559.673L409.537 555.844L409.441 546.309L409.439 542.761C409.203 540.023 409.189 537.266 409.129 534.516Z"/><path fill="#802429" d="M409.129 534.516L416.57 537.519L419.268 538.876C421.206 539.752 424.27 541.025 426.026 542.049L429.196 543.419L439.085 547.971C428.306 555.832 420.029 563.602 410.024 571.857L409.583 559.673L409.537 555.844L409.441 546.309L409.439 542.761C409.203 540.023 409.189 537.266 409.129 534.516Z"/><path fill="#802429" d="M409.129 534.516L416.57 537.519L419.268 538.876C421.206 539.752 424.27 541.025 426.026 542.049C419.562 546.819 415.159 551.486 409.537 555.844L409.441 546.309L409.439 542.761C409.203 540.023 409.189 537.266 409.129 534.516Z"/><path fill="#AF7E42" d="M409.129 534.516L416.57 537.519L419.268 538.876C415.952 541.515 412.96 543.92 409.441 546.309L409.439 542.761C409.203 540.023 409.189 537.266 409.129 534.516Z"/><path fill="#802429" d="M409.129 534.516L416.57 537.519C414.135 539.255 411.794 540.914 409.439 542.761C409.203 540.023 409.189 537.266 409.129 534.516Z"/><path fill="#AF7E42" d="M426.026 542.049L429.196 543.419C423.408 548.409 415.678 555.289 409.583 559.673L409.537 555.844C415.159 551.486 419.562 546.819 426.026 542.049Z"/><path fill="#AF7E42" d="M439.085 547.971L441.677 549.147C430.781 558.367 420.797 566.673 409.984 576.165L410.024 571.857C420.029 563.602 428.306 555.832 439.085 547.971Z"/><path fill="#802429" d="M451.729 553.638L454.828 554.974C457.789 556.3 460.774 557.573 463.781 558.793C448.037 572.257 431.824 585.059 416.536 599.05C414.887 600.559 412.307 603.018 410.51 604.287C410.569 600.669 410.508 597.05 410.325 593.435C410.29 592.211 410.363 590.626 410.388 589.37C421.078 578.906 439.87 563.02 451.729 553.638Z"/><path fill="#AF7E42" d="M451.729 553.638L454.828 554.974C448.074 561.392 439.221 568.331 432.018 574.645C426.32 579.639 416.153 589.244 410.325 593.435C410.29 592.211 410.363 590.626 410.388 589.37C421.078 578.906 439.87 563.02 451.729 553.638Z"/><path fill="#AF7E42" d="M463.781 558.793L466.991 560.168C458.821 567.828 449.276 575.345 440.615 582.555C430.411 591.016 420.387 599.692 410.549 608.576L410.51 604.287C412.307 603.018 414.887 600.559 416.536 599.05C431.824 585.059 448.037 572.257 463.781 558.793Z"/><path fill="#AF7E42" d="M475.014 563.844L477.54 565.155C467.447 575.845 454.181 586.914 442.951 596.5C432.556 605.375 421.573 615.099 410.927 623.568L410.762 619.924C424.393 608.325 437.662 596.249 451.516 584.856C459.537 578.261 467.062 570.646 475.014 563.844Z"/><path fill="#27262D" d="M503.568 624.058L505.032 624.529C506.525 626.85 505.544 677.057 505.54 683.407C505.533 695.449 505.668 715.605 504.766 727.975C504.017 727.916 504.415 728.029 503.627 727.473C503.114 724.372 503.207 701.407 503.255 697.158C503.528 673.146 502.832 647.943 503.568 624.058Z"/><path fill="#27262D" d="M502.637 739.19C503.467 739.607 503.22 739.513 503.878 740.274C505.172 745.635 504.352 759.603 503.781 765.401L502.962 765.042C501.427 761.588 501.716 743.314 502.637 739.19Z"/><path fill="#802429" d="M751.965 475.514L752.45 476.029C753.03 479.501 752.451 492.665 752.344 496.736C751.968 512.096 751.488 527.454 750.902 542.807L746.538 683.688C739.638 688.345 728.071 694.295 720.366 698.529C705.613 706.707 690.763 714.708 675.818 722.53L675.091 722.028C674.958 702.003 676.46 674.745 677.316 654.521C679.711 605.359 681.855 556.185 683.748 507.002C704.431 498.762 730.987 485.066 751.965 475.514Z"/><path fill="#27262D" d="M740.038 629.214C742.706 631.105 741.319 673.315 740.548 679.77C734.559 684.545 705.068 700.904 698.115 702.998L697.463 702.638L697.334 701.965C701.836 697.442 729.932 683.572 738.056 678.569C739.168 668.154 738.298 653.731 739.101 642.987C739.436 638.512 739.077 633.671 740.038 629.214Z"/><path fill="#802429" d="M282.526 481.132C286.248 482.845 295.427 487.15 299.022 487.987C299.524 488.289 301.294 489.297 301.619 489.618C305.167 491.065 308.704 492.54 312.228 494.045C313.224 494.537 314.64 495.164 315.518 495.769C319.484 497.333 323.159 498.762 327.02 500.599C328.267 501.182 329.635 501.704 330.658 502.591C333.907 503.494 336.906 504.907 340 506.252C347.392 509.101 349.425 514.852 348.929 522.476C349.041 525.887 349.56 531.781 349.376 534.831C349.858 537.312 350.013 538.073 349.965 540.579C350.036 545.353 350.567 554.145 350.337 558.332L350.774 561.118C350.932 567.438 351.563 576.017 351.433 581.847L351.647 587.533C352.15 591.234 352.286 598.428 352.456 602.369L353.649 630.613C355.008 662.128 356.146 694.957 357.885 726.334C348.013 722.396 330.387 712.085 320.051 706.991C313.71 703.865 293.305 693.453 288.388 689.97C287.876 683.907 287.827 675.346 287.619 669.126L286.225 620.137L284.084 547.132C283.408 524.691 282.54 503.627 282.526 481.132Z"/><path fill="#802429" d="M301.619 489.618C305.167 491.065 308.704 492.54 312.228 494.045C313.224 494.537 314.64 495.164 315.518 495.769C319.484 497.333 323.159 498.762 327.02 500.599C328.267 501.182 329.635 501.704 330.658 502.591C333.907 503.494 336.906 504.907 340 506.252C347.392 509.101 349.425 514.852 348.929 522.476C349.041 525.887 349.56 531.781 349.376 534.831C349.858 537.312 350.013 538.073 349.965 540.579C350.036 545.353 350.567 554.145 350.337 558.332L350.774 561.118C350.932 567.438 351.563 576.017 351.433 581.847C346.682 575.132 342.035 567.114 337.575 560.099C323.111 537.35 310.997 514.905 301.619 489.618Z"/><path fill="#802429" d="M315.518 495.769C319.484 497.333 323.159 498.762 327.02 500.599C328.267 501.182 329.635 501.704 330.658 502.591C333.907 503.494 336.906 504.907 340 506.252C347.392 509.101 349.425 514.852 348.929 522.476C349.041 525.887 349.56 531.781 349.376 534.831C349.858 537.312 350.013 538.073 349.965 540.579C350.036 545.353 350.567 554.145 350.337 558.332C344.686 548.345 338.366 538.876 332.633 529.015C326.417 518.322 321.045 506.83 315.518 495.769Z"/><path fill="#802429" d="M330.658 502.591C333.907 503.494 336.906 504.907 340 506.252C347.392 509.101 349.425 514.852 348.929 522.476C349.041 525.887 349.56 531.781 349.376 534.831C342.867 524.779 336.358 513.041 330.658 502.591Z"/><path fill="#AF7E42" d="M340 506.252C347.392 509.101 349.425 514.852 348.929 522.476C346.614 519.045 341.625 510.006 340 506.252Z"/><path fill="#AF7E42" d="M327.02 500.599C328.267 501.182 329.635 501.704 330.658 502.591C336.358 513.041 342.867 524.779 349.376 534.831C349.858 537.312 350.013 538.073 349.965 540.579C345.666 536.312 329.319 507.202 327.02 500.599Z"/><path fill="#AF7E42" d="M312.228 494.045C313.224 494.537 314.64 495.164 315.518 495.769C321.045 506.83 326.417 518.322 332.633 529.015C338.366 538.876 344.686 548.345 350.337 558.332L350.774 561.118C350.542 562.22 350.756 561.709 350.129 562.65C348.662 561.751 344.429 554.449 343.322 552.662C331.968 534.348 319.345 514.464 312.228 494.045Z"/><path fill="#AF7E42" d="M299.022 487.987C299.524 488.289 301.294 489.297 301.619 489.618C310.997 514.905 323.111 537.35 337.575 560.099C342.035 567.114 346.682 575.132 351.433 581.847L351.647 587.533C340.824 573.633 298.527 503.706 299.022 487.987Z"/><path fill="#27262D" d="M291.266 526.192C293.466 527.998 293.552 534.094 293.654 536.922C294.834 569.51 295.05 602.127 296.02 634.723C296.262 642.875 296.789 651.613 295.816 659.69L294.927 658.784C293.73 654.394 293.676 642.533 293.5 637.59C292.857 623.315 292.42 609.032 292.19 594.744L291.208 552.426C291.055 545.892 290.467 532.185 291.266 526.192Z"/><path fill="#27262D" d="M302.143 594.752C302.49 595.028 302.936 595.312 303.011 595.667C304.388 602.155 305.26 637.814 304.034 641.64C303.702 641.371 303.096 640.963 303.022 640.598C301.648 633.778 300.666 599.655 302.143 594.752Z"/><path fill="#E2B26A" d="M681.529 425.055C682.507 426.243 679.552 486.135 679.299 491.907L672.009 654.251C671.071 677.735 669.643 702.692 669.417 726.091C663.671 729.762 656.914 733.048 650.844 736.333C642.167 741.028 633.403 745.994 624.607 750.423C624.812 740.533 624.959 730.642 625.045 720.75L627.414 561.498L628.349 507.285C628.498 496.937 628.357 486.234 628.801 475.931C637.154 480.33 648.58 486.907 657.201 490.995C657.771 491.265 658.151 490.786 658.805 490.345C661.185 483.552 646.566 449.806 642.989 442.165C655.534 436.269 668.808 430.778 681.529 425.055Z"/><path fill="#AF7E42" d="M634.741 488.288L635.818 489.32C636.988 494.014 636.15 515.656 636.07 521.965C635.878 547.232 635.538 572.497 635.052 597.759L634.93 654.792C634.889 665.225 634.971 680.728 633.745 690.774L632.839 690.505C632.105 688.643 632.108 687.358 632.098 685.362C632.183 638.491 632.62 591.622 633.408 544.758C633.516 535.244 632.701 494.899 634.741 488.288Z"/><path fill="#AF7E42" d="M673.024 442.095C674.104 442.556 673.759 442.308 674.494 443.219C675.146 450.543 674.342 464.624 674.013 472.165L672.077 517.593L670.284 569.131C670.076 574.34 669.807 588.193 668.843 592.773C668.555 592.544 668.099 591.98 667.835 591.679C666.906 586.022 667.835 569.506 668.081 563.098L669.476 522.277L671.4 469.259C671.603 463.82 671.921 446.813 673.024 442.095Z"/><path fill="#AF7E42" d="M666.122 615.785C666.636 616.106 666.861 616.399 667.302 616.833C667.904 619.745 667.904 622.554 666.654 625.285C664.104 623.487 665.381 618.332 666.122 615.785Z"/><path fill="#E2B26A" d="M349.971 426.406C362.431 431.547 375.167 437.256 387.601 442.597C380.896 454.295 372.39 477.066 369.777 490.73C369.535 491.996 370.211 492.408 370.957 493.189C373.707 493.324 397.617 478.253 402.889 475.61C403.068 513.048 404.242 551.371 404.923 588.849C405.693 631.212 406.116 674.074 407.472 716.375C407.519 728.391 407.936 740.608 408.041 752.689C393.733 745.401 377.534 737.117 363.524 729.422C363.503 718.099 362.561 704.273 362.026 692.823L359.025 628.181L349.971 426.406Z"/><path fill="#AF7E42" d="M396.615 499.218C397.721 500.105 398.397 501.332 398.473 502.754C399.037 513.367 398.907 524.003 398.966 534.627L399.271 594.757C399.333 608.092 399.517 621.427 399.824 634.76C400.095 645.596 400.668 660.521 399.773 671.004L398.964 670.887C397.204 668.336 397.289 615.987 397.228 608.584L396.507 542.546C396.472 533.981 395.353 506.063 396.615 499.218Z"/><path fill="#AF7E42" d="M357.386 454.125C358.456 454.648 358.12 454.4 358.896 455.264C359.692 465.007 359.931 475.628 360.434 485.464C361.732 510.301 362.8 535.149 363.639 560.005C364.008 570.198 366.159 597.356 365.293 606.13C361.399 602.832 358.143 474.824 356.948 462.06C356.8 460.484 356.973 455.882 357.386 454.125Z"/><path fill="#86592C" d="M364.547 609.845C365.275 610.256 365.487 610.526 366.122 611.084C367.075 614.49 366.981 616.826 366.775 620.365L365.748 620.214C363.735 617.735 364.429 613.15 364.547 609.845Z"/><path fill="#86592C" d="M365.856 636.239L366.737 637.111C367.494 641.154 367.219 643.709 366.758 647.714C365.173 644.2 365.613 640.025 365.856 636.239Z"/><path fill="#E2B26A" d="M544.615 335.526C569.885 308.139 602.177 283.132 636.238 267.63C649.675 261.514 666.228 256.85 678.326 268.52C691.06 280.803 688.406 302.335 690.723 318.516C688.607 316.047 687.196 314.259 685.418 311.55C683.855 309.169 680.628 300.062 679.033 299.572C676.264 301.885 677.852 306.065 678.927 309.012C681.341 315.626 686.253 320.609 690.826 325.77C703.816 339.645 705.206 354.192 700.695 372.253C700.544 361.661 699.801 356.107 692.874 347.6C692.558 347.305 692.238 347.014 691.914 346.726C678.477 334.845 662.407 335.63 645.833 336.694C642.317 337.333 638.803 337.782 635.251 338.416C610.15 342.892 586.054 351.89 562.664 361.828C560.15 362.896 557.563 364.125 555.188 365.411C554.809 361.667 553.513 356.561 552.258 352.996C563.937 344.134 575.186 336.223 588.509 330.049C592.438 328.229 598.829 326.255 601.515 322.996L601.606 321.959C596.27 318.842 566.253 336.702 560.545 340.625C558.648 341.929 551.552 347.942 550.042 347.564C549.333 345.833 549.415 346.705 549.828 344.851C558.717 336.047 568.594 328.301 579.262 321.767C583.63 319.06 591.452 314.866 595.076 311.847C579.073 316.953 559.998 330.069 546.733 340.774L544.615 335.526Z"/><path fill="#F7E1B7" d="M645.833 336.694C644.519 333.047 652.345 327.725 654.537 325.083C663.21 314.636 659.013 298.186 655.671 286.387C653.752 279.613 639.779 269.479 653.913 266.654C661.853 265.067 667.657 268.88 668.037 277.652C667.571 294.492 664.694 313.043 679.289 325.398C684.316 329.654 697.767 339.955 692.874 347.6C692.558 347.305 692.238 347.014 691.914 346.726C678.477 334.845 662.407 335.63 645.833 336.694Z"/><path fill="#151A1D" d="M615.049 315.498C616.628 316.282 616.118 315.706 616.852 317.049C615.993 319.166 612.615 319.896 610.626 320.434C608.977 320.041 609.575 320.5 608.578 319.357L609.184 318.191C611.538 316.452 612.207 316.338 615.049 315.498Z"/><path fill="#E2B26A" d="M339.924 319.424C341.492 303.342 338.589 282.918 351.325 270.479C356.677 265.251 363.865 262.711 371.275 262.872C403.719 263.58 463.211 312.792 484.991 335.502L482.49 342.011C471.271 332.051 448.049 316.616 433.636 312.6C437.76 315.967 483.705 341.737 479.086 348.246C475.721 347.923 437.43 318.559 428.527 323.014L428.414 323.935C430.71 327.001 443.94 332.21 448.79 334.773C458.865 340.065 468.331 346.443 477.018 353.794C475.441 358.325 474.419 361.016 473.861 365.797C447.774 353.537 414.169 342.402 385.684 338.087C368.919 337.079 351.547 335.905 338.085 347.884C334.272 352.314 332.52 355.002 330.815 360.724C330.022 363.384 330.338 369.174 329.231 370.626C324.241 358.246 327.932 340.288 336.614 330.375C341.142 325.204 346.259 320.225 349.606 314.216C350.99 311.731 354.475 302.676 351.055 301.116C349.616 302.114 347.043 309.459 345.575 311.916C343.421 315.524 342.742 316.239 339.924 319.424Z"/><path fill="#F7E1B7" d="M338.085 347.884C334.201 339.748 347.643 329.945 352.22 325.553C354.26 323.574 356.054 321.354 357.561 318.944C362.928 310.332 363.889 301.391 362.559 291.462C361.957 284.64 360.044 275.345 366.174 270.396C370.132 267.201 380.367 267.229 383.23 271.799C385.839 275.964 378.368 280.391 376.642 283.498C374.834 286.752 373.4 290.667 372.612 294.359C370.902 303.817 368.441 319.856 375.698 327.534C379.966 332.048 381.943 332.251 385.684 338.087C368.919 337.079 351.547 335.905 338.085 347.884Z"/><path fill="#151A1D" d="M412.323 316.445C414.944 316.374 419.068 316.85 420.931 318.983C421.657 319.814 421.27 320.088 421.124 321.29C417.998 321.714 413.053 319.92 412.323 316.445Z"/><path fill="#151A1D" d="M456.142 347.411C459.006 347.439 460.964 348.271 461.833 351.151C459.694 351.105 459.408 351.182 457.466 350.427C455.993 348.806 456.484 349.745 456.142 347.411Z"/><path fill="#802429" d="M504.987 407.005C508.505 406.656 511.352 407.671 514.751 407.86C516.902 407.979 520.662 406.683 522.89 407.047C527.668 407.828 532.19 410.988 536.71 412.811C541.653 414.806 546.543 416.689 551.459 418.629C553.724 419.523 556.701 421.187 558.154 423.116C566.466 434.151 574.166 450.459 579.336 463.044C574.033 465.802 566.584 468.903 561.027 471.393L521.225 488.962L515.672 491.568C509.746 489.147 503.892 486.122 498.015 483.492C481.727 476.141 465.356 468.975 448.904 461.996L449.162 461.284C452.159 453.099 466.158 424.464 473.369 420.642C481.534 416.315 496.013 411.129 504.987 407.005Z"/><path fill="#27262D" d="M533.079 417.286C534.878 417.301 535.849 417.55 536.799 419.214C539.695 424.289 548.48 442.232 547.705 447.3C546.908 447.44 546.235 447.473 545.43 447.54C542.804 445.003 533.451 421.536 533.079 417.286Z"/><path fill="#27262D" d="M494.06 417.21L495.458 417.81C496.932 421.052 487.629 444.91 485.141 448.231C483.85 447.485 483.381 447.413 482.717 446.107C483.276 441.129 491.037 421.264 494.06 417.21Z"/><path fill="#27262D" d="M514.143 416.242C515.02 416.775 515.527 417.243 515.782 418.185C517.119 423.128 517.848 444.855 516.025 448.644C514.142 448.116 514.706 448.625 513.543 447.457C511.815 442.287 512.02 421.155 514.143 416.242Z"/><path fill="#27262D" d="M513.853 457.136C515.727 457.528 514.943 457.113 516.323 458.364C517.959 462.411 518.04 478.164 516.497 482.008C515.239 481.847 513.912 481.483 513.599 480.107C512.47 475.145 512.072 461.464 513.853 457.136Z"/><path fill="#27262D" d="M547.887 453.37C550.7 453.378 551.248 453.147 552.804 455.588C553.017 457.617 552.908 457.711 552.024 459.629C547.882 460.136 548.012 456.487 547.887 453.37Z"/><path fill="#27262D" d="M479.662 454.685C481.571 454.968 481.839 455.429 482.314 457.095C481.779 459.245 481.504 459.367 479.935 461.059L478.976 460.942C477.525 459.774 477.98 460.496 477.528 458.722C477.917 456.535 478.145 456.435 479.662 454.685Z"/><path fill="#27262D" d="M554.049 464.909C555.202 464.615 556.384 465.273 556.741 466.409C557.098 467.544 556.505 468.76 555.391 469.178C554.614 469.469 553.74 469.308 553.119 468.758C552.497 468.208 552.231 467.36 552.426 466.554C552.621 465.747 553.246 465.115 554.049 464.909Z"/><path fill="#27262D" d="M474.806 466.626C475.483 466.227 476.325 466.235 476.994 466.645C477.664 467.056 478.052 467.802 478.004 468.586C477.955 469.37 477.478 470.064 476.763 470.389C475.735 470.856 474.521 470.438 474 469.436C473.479 468.434 473.833 467.199 474.806 466.626Z"/><path fill="#802429" d="M580.324 468.979L581.446 469.164C584.352 473.637 589.589 495.336 591.152 501.304C592.292 505.659 592.737 510.711 595.354 514.782L596.436 514.867C600.861 512.117 614.743 477.618 618.096 470.528C619.739 471.415 621.709 472.238 623.432 473.015C622.932 491.272 622.804 509.816 622.51 528.104C611.147 534.475 589.905 543.31 577.627 548.783C575.261 550.016 566.128 554.229 563.833 555.009C557.476 557.169 521.505 575.534 518.233 574.543C516.747 570.667 517.459 506.468 517.073 496.588C537.609 488.384 559.742 477.872 580.324 468.979Z"/><path fill="#802429" d="M447.111 467.137C462.844 473.839 478.479 481.192 494.203 487.966C500.222 490.559 506.694 493.326 512.441 496.376C512.711 522.128 512.375 548.485 512.439 574.315C493.043 566.437 473.262 557.371 454.14 548.825C451.482 547.839 448.542 546.479 445.944 545.265C433.897 539.638 421.375 534.308 409.495 528.394C408.674 522.122 407.746 475.653 409.083 472.424L410.013 472.198C416.169 477.681 424.017 509.456 432.997 517.02C434.827 511.933 435.977 505.173 437.212 499.77C439.906 487.981 442.369 478.307 447.111 467.137Z"/><path fill="#27262D" d="M504.466 508.146C504.711 508.265 504.995 508.325 505.203 508.503C507.652 510.602 506.547 555.384 505.792 561.397C504.55 561.029 504.629 561.078 503.821 560.065C503.237 555.034 503.562 512.43 504.466 508.146Z"/><path fill="#802429" d="M261.496 388.97C268.605 391.031 283.78 398.205 291.364 401.504L344.472 424.404C345.507 448.665 347.659 477.679 347.635 501.516C347.897 502.291 347.788 502.378 347.772 503.255L347.022 503.523C343.972 502.839 341.147 501.228 338.334 499.822C324.648 493.973 310.734 487.429 297.007 481.499C289.239 478.142 271.311 470.873 264.571 466.652C263.596 448.059 262.82 429.456 262.243 410.846C261.991 403.502 261.384 396.325 261.496 388.97Z"/><path fill="#6D252D" d="M338.334 499.822C342.509 498.567 343.582 499.998 347.635 501.516C347.897 502.291 347.788 502.378 347.772 503.255L347.022 503.523C343.972 502.839 341.147 501.228 338.334 499.822Z"/><path fill="#802429" d="M770.909 386.006C772.679 388.567 770.109 452.838 769.843 461.326C756.965 467.639 743.453 473.32 730.393 479.389C715.307 486.4 700.261 493.675 685.107 500.492C683.097 497.199 687.454 432.799 687.508 422.986C692.833 420.946 699.994 417.481 705.494 415.132C727.357 405.554 749.163 395.846 770.909 386.006Z"/><path fill="#27262D" d="M756.397 398.457C757.834 398.469 757.339 398.423 758.743 398.904L758.52 399.693C753.984 402.846 717.752 419.116 711.638 421.216L710.283 421.197L709.957 420.52C712.534 417.423 749.738 401.178 756.397 398.457Z"/><path fill="#E2B26A" d="M546.951 388.986C562.327 399.933 575.6 409.371 587.318 424.4C587.989 425.261 588.916 425.649 589.989 425.578L590.497 424.755C588.97 417.374 568.368 398.761 561.78 394.091C566.343 395.43 572.057 397.026 576.233 399.265C581.412 402.041 585.756 408.407 590.756 411.431L591.3 411.109C589.853 407.815 584.559 402.794 581.854 400.099C585.671 400.84 599.343 402.868 601.998 404.258C619.008 413.167 635.592 438.331 642.775 454.25C647.38 464.683 649.685 472.35 653.041 483.189C645.836 478.693 622.814 466.609 615.375 463.95C610.786 471.67 601.63 494.404 597.383 503.888C584.24 457.065 576.593 433.818 543.826 395.953C544.916 392.686 545.289 391.956 546.951 388.986Z"/><path fill="#AF7E42" d="M366.885 342.704C367.718 342.823 367.277 342.652 368.067 343.485L368.208 344.41C372.744 372.715 418.539 373.191 440.353 371.884C449.221 371.352 467.24 367.039 474.071 371.889L474.099 372.704C470.993 374.603 443.913 381.461 438.706 382.524C434.394 383.405 426.584 383.948 422.423 385.669C422.293 385.74 422.164 385.81 422.035 385.88C440.354 386.706 457.224 380.551 474.922 377.407L476.697 377.496C478.368 379.12 478.922 381.193 479.806 383.412C464.924 391.589 438.289 398.745 420.762 400.791C397.427 403.515 338.442 404.627 334.808 372.719C332.489 352.348 348.967 344.338 366.885 342.704Z"/><path fill="#AF7E42" d="M661.677 341.421C674.818 341.92 690.272 346.475 694.233 360.345C699.779 379.766 686.236 391.163 669.542 395.924C632.724 406.423 583.287 399.995 549.931 382.348C550.963 379.888 551.768 378.548 553.101 376.292C559.291 376.79 565.96 379.195 571.881 380.495C578.245 381.892 600.59 386.874 605.609 385.055C603.537 383.215 598.961 383.232 596.282 382.753C582.465 380.289 567.952 376.05 554.936 370.837C561.366 367.934 564.776 368.419 571.675 369.365C595.601 372.645 659.671 375.723 661.677 341.421Z"/><path fill="#E2B26A" d="M481.447 390.868C482.865 391.484 484.02 394.67 484.76 396.236C462.34 422.049 447.845 443.712 437.666 476.989C434.982 485.763 433.164 494.377 430.671 503.007C427.167 495.338 416.677 470.366 412.993 464.793C403.318 468.037 385.657 479.307 376.452 484.959C380.479 472.477 383.073 463.966 388.791 452.125C390.644 448.241 392.668 444.441 394.855 440.735C401.874 428.901 410.92 418.217 421.314 409.193C428.117 403.287 438.941 403.213 447.813 400.927C442.466 405.81 439.065 409.292 435.145 415.337C437.775 413.418 443.186 408.51 445.811 406.145C453.924 398.833 459.426 397.312 469.446 393.592C464.07 397.755 436.188 420.592 439.069 426.126C441.551 425.89 444.347 422.129 446.012 420.191C456.333 408.17 468.25 399.632 481.447 390.868Z"/><path fill="#802429" d="M516.17 287.19C521.594 288.537 528.466 291.207 533.848 293.125C532.827 296.365 527.932 308.952 530.429 311.173C533.58 309.351 536.509 298.801 537.785 294.914C542.757 296.607 547.682 298.435 552.554 300.396C550.689 303.3 544.717 311.759 545.787 314.706L546.863 314.588C551.02 311.588 553.916 306.17 556.694 301.765C560.334 302.847 563.869 304.259 567.418 305.616C558.262 313.92 549.703 322.583 540.706 330.904C525.624 325.575 518.513 321.335 502.616 325.883C498.193 327.661 493.087 328.833 488.137 330.857C484.743 328.263 480.284 323.505 477.088 320.416C472.488 316.041 467.838 311.719 463.138 307.451C465.458 306.944 468.957 305.679 471.306 304.909C473.895 307.539 479.165 316.314 482.86 315.98L483.082 315.26C482.062 310.756 478.568 306.693 475.736 303.065C479.459 301.145 485.896 298.828 490.019 297.169C491.25 300.865 493.688 309.949 496.674 311.613L497.21 310.769C497.439 305.898 495.425 300.514 493.966 295.803C499.582 293.403 506.154 291.098 511.911 289.013C511.865 293.898 511.382 303.973 513.567 308.048L514.23 307.824C516.323 303.033 516.067 292.811 516.17 287.19Z"/><path fill="#802429" d="M707.815 362.195C717.288 365.141 726.993 368.632 736.406 371.874C745.909 375.148 756.334 378.457 765.514 382.299C758.25 386.01 749.026 389.873 741.454 393.301C729.295 398.911 717.059 404.353 704.75 409.625C699.096 412.224 691.496 415.502 685.703 417.567C677.865 415.039 662.246 408.818 654.803 405.358C681.939 397.98 701.899 393.862 707.815 362.195Z"/><path fill="#802429" d="M321.594 365.031C322.585 365.383 323.114 368.19 323.418 369.335C330.239 395.021 354.661 403.12 378.236 406.317C367.822 410.674 357.349 414.889 346.82 418.961C341.032 417.043 335.897 414.855 330.277 412.515C310.823 403.564 287.02 393.539 267.194 385.377C273.335 382.331 282.556 379.275 289.184 376.818C299.818 372.876 310.852 368.554 321.594 365.031Z"/><path fill="#27262D" d="M287.921 385.441C291.558 385.207 319.916 397.721 320.243 401.253C315.549 400.244 291.046 389.532 287.862 386.69L287.921 385.441Z"/><path fill="#E2B26A" d="M498.549 347.318C503.268 346.654 514.244 347.102 519.267 347.208C523.092 347.158 528.639 346.294 531.172 348.746C531.199 349.902 531.24 350.466 531.149 351.607C531.139 357.171 531.491 375.265 530.52 379.591C530.373 381.925 530.807 381 529.548 382.611C526.652 383.739 525.044 382.994 521.978 383.542C513.917 383.436 505.858 383.21 497.804 382.863C497.802 374.861 496.896 355.867 497.839 348.93L498.549 347.318Z"/><defs><linearGradient id="gradient_0" gradientUnits="userSpaceOnUse" x1="506.87567" y1="359.96884" x2="499.30804" y2="348.12262"><stop offset="0" stop-color="#F1D9B2"/><stop offset="1" stop-color="#F6EED7"/></linearGradient></defs><path fill="url(#gradient_0)" d="M498.549 347.318C503.288 347.619 508.134 347.494 512.89 347.45C503.224 357.256 503.167 354.595 498.107 369.301C498.07 363.908 498.283 354.075 497.839 348.93L498.549 347.318Z"/><path fill="#F7E1B7" d="M521.978 383.542C520.898 383.245 520.356 382.966 519.33 382.502C521.602 379.5 525.643 372.477 529.633 374.164C530.795 375.707 530.517 377.588 530.52 379.591C530.373 381.925 530.807 381 529.548 382.611C526.652 383.739 525.044 382.994 521.978 383.542Z"/><path fill="#F7E1B7" d="M515.438 347.675C520.573 348.418 526.775 351.672 528.96 356.611C528.592 357.994 527.946 360.354 526.987 361.272L526.111 360.52C523.806 352.51 519.745 353.922 514.147 348.617L514.242 347.862L515.438 347.675Z"/><path fill="#F7E1B7" d="M499.771 374.287C502.712 376.557 504.378 379.121 503.636 382.86C501.755 382.503 501.32 382.557 499.892 381.245C499.039 379.132 499.626 376.812 499.771 374.287Z"/><path fill="#E2B26A" d="M613.061 405.487C621.585 406.198 638.384 405.545 645.316 407.824C656.143 411.383 667.948 416.623 678.916 420.543L667.376 425.721C658.347 429.658 649.349 433.664 640.382 437.739C630.474 422.963 626.149 417.568 613.061 405.487Z"/><path fill="#E2B26A" d="M414.871 406.725C415.552 406.581 415.191 406.554 415.932 406.964C414.446 408.855 408.73 413.863 406.35 416.479C399.723 423.762 395.567 429.999 390.296 438.117C382.296 434.769 374.116 431.02 366.165 427.5L353.511 422.093C364.808 417.868 377.112 411.845 388.373 408.178C392.926 406.696 408.659 407.157 414.871 406.725Z"/><path fill="#802429" d="M373.167 344.766C379.001 346.111 424.895 363.82 428.611 366.782C415.755 367.334 399.823 365.443 387.994 360.111C380.08 356.544 376.179 352.791 373.167 344.766Z"/><path fill="#802429" d="M655.614 344.021L656.213 344.249C652.972 363.093 616.764 365.883 601.992 365.926C601.695 365.857 601.458 365.631 601.2 365.469C603.897 364.698 614.855 359.855 618.163 358.532C630.597 353.567 643.081 348.73 655.614 344.021Z"/><path fill="#E2B26A" d="M643.312 342.203L644.619 342.179C644.226 342.636 630.014 347.974 627.792 348.851L601.548 359.345C588.536 364.607 588.667 365.892 574.397 364.445C573.817 364.467 572.932 364.365 572.327 364.318L572.338 363.919C589.41 355.306 624.344 344.899 643.312 342.203Z"/><path fill="#E2B26A" d="M386.468 343.617C401.559 344.953 443.58 357.719 457.068 364.626L456.781 365.001C455.024 365.27 445.104 366.493 443.877 366.113C434.713 363.274 423.999 358.432 415.068 354.78C405.627 350.92 395.577 347.572 386.468 343.617Z"/><path fill="#D3A560" d="M534.474 349.949C539.039 353.471 545.718 359.896 550.166 363.93C548.057 366.303 545.4 368.659 543.05 370.852L534.07 379.098C533.901 370.23 533.938 358.657 534.474 349.949Z"/><path fill="#D3A560" d="M493.786 350.962C495.099 352.596 494.489 375.934 494.466 379.677C492 377.241 489.36 374.847 486.813 372.483C483.977 369.833 481.303 367.313 478.583 364.547C483.889 360.164 488.526 355.238 493.786 350.962Z"/><path fill="#E2B26A" d="M489.75 364.209C490.328 366.873 491.025 370.397 487.766 371.143C485.042 370.448 484.16 369.414 482.702 367.048C482.146 362.803 485.628 359.052 489.226 357.345L489.352 357.966L487.656 359.761C488.97 360.213 488.446 360.145 489.861 359.89C490.133 358.575 490.343 357.707 491.032 356.51L491.333 357.687C490.709 359.791 491.156 359.499 489.73 360.509C489.631 362.012 489.445 362.757 489.75 364.209Z"/><path fill="#F3EAD7" d="M489.75 364.209C489.775 365.456 489.909 366.36 489.444 367.512L488.402 367.786C485.683 366.604 485.175 364.936 486.135 362.194C487.554 360.883 487.883 360.919 489.73 360.509C489.631 362.012 489.445 362.757 489.75 364.209Z"/><defs><linearGradient id="gradient_1" gradientUnits="userSpaceOnUse" x1="518.43634" y1="346.17346" x2="513.297" y2="333.92429"><stop offset="0" stop-color="#CC9B53"/><stop offset="1" stop-color="#E3BB72"/></linearGradient></defs><path fill="url(#gradient_1)" d="M514.503 328.102C519.298 333.754 524.251 338.673 528.814 344.505C524.106 344.419 504.065 344.647 501.153 344.028C502.112 342.828 502.487 342.46 503.56 341.426C506.176 337.359 511.219 331.79 514.503 328.102Z"/><path fill="#E2B26A" d="M503.56 341.426C507.406 340.626 510.708 333.53 514.052 334.893C514.644 339.823 508.893 338.789 508.202 340.465C506.377 344.886 508.364 343.655 501.153 344.028C502.112 342.828 502.487 342.46 503.56 341.426Z"/><path fill="#D3A560" d="M500.865 386.24C507.255 386.82 520.647 386.447 527.616 386.49C525.314 389.571 522.738 392.667 520.311 395.672C518.404 398.23 516.546 400.221 514.4 402.575C511.1 399.522 503.146 390.17 500.865 386.24Z"/><path fill="#D3A560" d="M548.858 369.394L549.321 370.218C547.803 375.598 543.281 386.778 540.47 391.78L539.837 391.921L538.553 390.112L534.209 383.697C537.75 379.619 544.717 373.323 548.858 369.394Z"/><path fill="#D3A560" d="M479.449 370.289C482.284 371.518 491.603 381.222 493.984 384.078C492.959 386.173 491.678 388.142 490.454 390.132L488.345 393.198C485.246 386.235 481.977 377.49 479.449 370.289Z"/><path fill="#E2B26A" d="M531.917 386.307C533.788 387.589 536.835 392.673 538.309 394.857C534.157 396.787 528.896 398.618 524.478 400.547L518.001 403.038C522.558 398.092 527.276 391.641 531.917 386.307Z"/><path fill="#D3A560" d="M496.191 386.447C497.871 387.947 508.493 400.035 509.514 401.731C508.659 402.096 506.815 401.193 505.623 400.799C500.677 399.168 495.775 397.407 490.922 395.518L496.191 386.447Z"/><path fill="#E2B26A" d="M539.218 399.472C541.977 399.975 549.725 410.589 551.837 413.286C549.772 412.273 547.505 411.429 545.36 410.573C540.16 408.552 534.603 405.922 529.477 403.619C532.958 401.931 535.593 400.856 539.218 399.472Z"/><path fill="#F3EAD7" d="M501.991 331.684L509.512 328.989L503.98 335.981C503.061 337.128 501.386 339.358 500.439 340.338L496.492 344.214C494.811 341.709 492.358 338.823 491.945 336.073C492.719 334.487 492.711 334.928 494.863 334.012L501.991 331.684Z"/><path fill="#F7E1B7" d="M501.991 331.684L509.512 328.989L503.98 335.981C503.061 337.128 501.386 339.358 500.439 340.338C499.258 335.379 499.442 334.951 494.863 334.012L501.991 331.684Z"/><path fill="#E2B26A" d="M501.991 331.684L509.512 328.989L503.98 335.981C503.999 333.224 504.54 332.608 501.991 331.684Z"/><path fill="#D3A560" d="M519.323 329.385C522.513 329.591 534.123 333.973 537.361 335.251L534.492 340.548C533.808 341.849 533.63 342.455 532.42 343.308C529.704 342.076 521.754 332.26 519.323 329.385Z"/><path fill="#E2B26A" d="M489.126 338.411C490.805 340.986 492.83 343.859 494.126 346.602C489.413 350.978 485.212 354.986 480.094 358.894C482.033 354.265 483.812 349.853 486.147 345.395C487.117 342.962 487.977 340.779 489.126 338.411Z"/><path fill="#E2B26A" d="M488.264 399.916C490.445 400.899 496.223 402.68 498.732 403.536C494.886 405.472 490.625 407.251 486.662 408.992C483.89 410.24 481.007 411.197 478.139 412.209C481.568 407.823 484.525 404.067 488.264 399.916Z"/><path fill="#E2B26A" d="M536.318 342.9L539.785 336.889L543.284 343.539L543.624 344.79C539.403 347.074 542.115 347.173 540.178 351.059C536.939 348.195 534.714 347.365 536.318 342.9Z"/><path fill="#D3A560" d="M536.318 342.9L539.785 336.889L543.284 343.539C541.036 343.387 538.595 343.092 536.318 342.9Z"/><path fill="#D3A560" d="M543.624 344.79C545.745 349.792 547.492 354.07 549.322 359.216L540.178 351.059C542.115 347.173 539.403 347.074 543.624 344.79Z"/><path fill="#27262D" d="M529.107 487.964L529.493 488.134L529.781 488.894C528.167 490.136 523.363 491.825 521.195 492.668L520.931 492.719L520.633 492.334C521.622 491.174 527.32 488.791 529.107 487.964Z"/><path fill="#AF7E42" d="M612.701 210.6C616.1 211.663 617.054 219.673 619.097 221.989C620.951 224.091 624.698 225.967 627.195 228.536C626.582 229.652 625.187 230.637 624.122 231.316C617.78 235.362 616.776 239.738 615.034 246.757C609.713 247.425 611.493 240.872 609.112 237.387C606.9 234.149 602.582 232.495 600.613 229.231C599.756 227.812 606.888 224.048 607.603 222.833C610.368 219.356 611.013 214.793 612.701 210.6Z"/><path fill="#E2B26A" d="M613.449 220.845C614.56 221.614 617.142 225.764 621.116 228.672C617.489 231.851 616.439 233.196 614.117 237.161L613.829 237.29C613.18 236.772 608.996 231.233 606.963 229.214C609.987 226.396 611.261 224.275 613.449 220.845Z"/><path fill="#AF7E42" d="M298.954 299.134L300.648 299.676C302.705 302.584 303.037 308.927 305.176 311.441C306.675 313.204 312.024 314.963 313.274 317.671C311.747 319.953 306.978 322.222 305.58 324.096C303.638 326.699 302.015 332.028 300.443 335.395C295.497 334.618 297.694 327.908 294.988 324.794C292.696 322.156 288.276 320.373 286.188 317.479C287.181 315.53 292.084 313.517 293.804 311.263C296.941 307.152 297.295 303.729 298.954 299.134Z"/><path fill="#E2B26A" d="M299.79 309.363C302.421 312.005 303.054 314.281 306.861 317.578C303.23 320.367 302.065 321.348 299.745 325.437C297.159 321.987 295.9 320.704 292.686 317.927C296.275 314.8 297.335 313.239 299.79 309.363Z"/><path fill="#AF7E42" d="M436.152 222.155C440.149 223.36 438.956 230.642 442.016 233.741C444.139 235.89 448.061 236.296 448.438 239.45C447.331 241.539 444.535 242.588 442.389 245.249C438.946 249.516 439.299 254.614 435.094 257.109C433.241 254.372 432.892 248.729 430.966 246.057C429.213 243.625 425.45 243.188 423.104 240.485C423.089 238.447 424.606 237.676 426.546 236.764C434.11 233.207 432.119 227.927 436.152 222.155Z"/><path fill="#E2B26A" d="M436.393 231.842C436.766 232.154 441.19 237.913 442.776 239.56L442.336 239.953L441.609 240.617C438.808 243.139 438.431 243.533 436.177 246.598C433.308 243.065 433.429 243.001 429.986 239.794C433.251 236.772 434.153 235.488 436.393 231.842Z"/><path fill="#AF7E42" d="M726.936 292.797C729.717 295.14 730.52 301.046 732.804 303.702C734.386 305.54 738.118 306.395 740.397 308.884C740.159 312.363 736.01 312.903 733.564 315.58C730.62 318.801 730.586 324.223 728.147 327.03C723.659 324.951 725.56 320.839 722.345 317.098C720.254 314.663 716.304 312.469 713.498 310.778C718.312 306.934 722.263 305.714 724.508 299.033C725.176 297.046 725.981 294.623 726.936 292.797Z"/><path fill="#E2B26A" d="M727.645 302.805C729.736 305.595 731.494 307.621 734.314 309.663C731.213 312.782 730.427 313.741 727.894 317.389C727.528 317.324 722.739 311.977 721.714 310.976C724.565 307.687 725.37 306.554 727.645 302.805Z"/><path fill="#1E2630" d="M512.877 226.654C513.806 227.051 514.768 227.495 514.864 228.577C515.284 233.316 516.393 244.636 514.255 248.621C513.295 247.956 512.385 247.336 512.29 246.203C511.931 241.926 510.789 230.039 512.877 226.654Z"/><path fill="#1E2630" d="M450.856 272.019C452.721 272.568 453.127 272.975 453.941 274.714C453.961 276.586 453.995 276.457 452.942 278.007C450.899 276.976 450.676 277.075 449.738 275.089C449.77 273.332 449.805 273.458 450.856 272.019Z"/><path fill="#1E2630" d="M573.941 267.126C575.746 267.749 575.968 267.829 576.503 269.468C576.068 271.227 575.721 271.446 574.536 272.775C572.715 272.325 572.666 272.352 572.045 270.786C572.37 268.987 572.855 268.574 573.941 267.126Z"/><path fill="#151A1D" d="M512.32 211.193C513.924 211.834 513.833 211.751 514.774 213.196C515.06 215.176 514.881 215.376 514.199 217.338C512.224 216.723 512.243 216.725 511.391 215.058C511.425 213.054 511.511 213.091 512.32 211.193Z"/><path fill="#151A1D" d="M475.633 248.916C476.279 248.467 477.124 248.421 477.815 248.799C478.506 249.177 478.923 249.914 478.892 250.7C478.861 251.487 478.388 252.189 477.67 252.511C476.693 252.951 475.541 252.574 475.013 251.642C474.485 250.71 474.754 249.528 475.633 248.916Z"/></svg>