<svg xmlns="http://www.w3.org/2000/svg" version="1.1" viewBox="0 413.08 1024 203.5">
<g id="icomoon-ignore">
</g>
<path fill="#FEF1D0" d="M692.041 413.078c15.591 0.454 23.329 8.681 22.191 24.19-1.902 25.932-17.947 45.95-28.841 68.398-1.301 2.678-2.631 14.328-3.155 17.878l0.92 0.302c7.446-5.534 11.762-24.111 27.051-24.361 31.182-0.51 33.413 31.419 14.999 49.653-8.991 8.904-15.353 12.265-28.252 12.42 5.651 16.752 21.709 29.782 37.839 35.863 4.336-3.065 10.034-7.341 14.545-2.382 2.058 6.764-3.223 17.451-9.454 19.491-33.496 10.974-49.968-24.852-60.297-45.45-0.752 5.945-1.283 11.307-1.623 17.324-0.609 4 1.493 16.978-4.719 17.739-13.352 1.637-16.395-21.791-17.757-29.908-6.716 12.83-12.26 35.919-32.267 30.72-11.454-2.79-15.166-11.862-16.172-22.749-1.969-21.291 5.417-43.152 0.929-64.418-0.546-2.586-2.686-6.131-4.036-8.509-26.797 21.134-27.755 89.633-36.078 95.419-1.383 0.961-2.957 0.882-4.518 0.555-12.764-2.663-9.227-20.257-12.594-25.194-1.329 0.922-3.628 3.653-4.533 5.106-19.318 31.025-60.838 26.732-74.847-9.194-10.442-29.094 4.611-80.204 42.065-78.972 5.443 0.179 17.722 2.002 21.164 5.986 5.601 6.483 3.746 21.864-2.501 27.307-1.935 0.525-3.058 0.499-4.801-0.148-13.666-5.067-4.941-11.054-7.185-15.438-0.475-0.059-1.158-0.185-1.6 0.023-22.844 10.777-30.243 53.134-12.587 71.151 2.002 2.043 5.25 3.88 7.766 5.318 39.638 0.704 39.516-67.766 41.827-95.050 2.181-25.746 8.894-54.957 16.063-79.711 2.121-7.32 23.156-0.47 22.374 6.314-6.511 35.044-14.509 70.959-15.145 106.758 6.181-11.789 10.018-34.727 28.267-32.465 41.916 5.192 23.564 56.451 21.666 83.43-0.261 3.714-0.704 7.345 1.793 10.332l1.623 0.004c10.135-5.575 20.499-36.749 22.498-48.436 4.309-25.177 6.169-125.067 37.383-129.298zM690.168 546.531c5.566-0.918 7.089-1.998 11.062-6.080 5.787-5.947 14.493-18.854 8.929-26.86l-1.681-0.451c-7.497 4.699-23.196 24.090-21.454 32.382 1.601 1.287 0.728 0.754 3.144 1.009zM689.93 474.777c4.54-6.879 20.382-40.328 12.055-45.757-4.693 7.56-14.519 40.207-13.225 45.845l1.171-0.088z"/>
<path fill="#FEF1D0" d="M897.026 422.537c6.378-0.366 9.541 0.502 15.534 3.164 9.265 4.116 3.178 17.517 1.358 26.038-2.043 9.172-3.404 18.483-4.072 27.856 5.678-0.052 9.961-0.42 15.937-0.242 2.962 2.062 8.455 6.894 4.511 10.861-6.144 6.183-16.139 5.618-24.241 5.545-0.138 8.609-2.262 19.613-2.91 28.647-0.723 10.081-0.6 19.457-1.138 29.456-1.166 8.276-1.182 15.119-1.083 23.375 0.643 18.53 10.471 16.222 19.714 4.155 14.973-19.549 14.927-41.96 26.095-62.462 4.271-7.839 18.445-19.253 27.465-20.392 6.72-0.848 16.048-0.919 21.965 3.308 4.328 3.114 7.133 7.917 7.717 13.217 1.915 16.774-8.919 35.357-24.356 41.904-12.733 5.4-20.295-0.074-16.607 18.682 1.441 10.747 12.864 20.249 23.758 16.851 16.172-5.045 23.62-23.041 29.869-37.134 1.366-3.081 4.789-2.165 7.028-0.256 0.882 3.594 0.282 5.433-0.662 8.916-7.888 29.109-33.406 51.394-64.092 38.172-11.948-5.149-17.614-15.361-21.956-27.091-4.316 11.204-14.251 28.695-27.296 30.49-5.597 0.73-11.248-0.87-15.634-4.425-10.911-8.774-13.742-26.271-14.946-39.268-4.52 3.089-6.341 4.089-11.303 6.433-0.238 20.172-9.198 36.030-30.187 40.496-17.043 1.162-35.449-7.088-26.654-27.798 4.971-11.703 18.63-15.934 29.964-19.51-7.67-7.264-13.031-13.722-20.26-20.944-1.581 3.99-3.13 7.993-4.651 12.008-6.042 15.694-15.281 43.676-31.506 51.231-11.863 5.523-26.813-6.634-30.028-17.868-1.72-6.010-4.308-11.932-4.449-18.602-0.464-21.864 1.456-45.336 7.271-66.407 0.425-1.495 3.854-2.527 4.755-2.931 3.381-1.515 13.889 2.065 16.379 3.558 7.982 4.788-1.368 29.992-2.821 37.679-1.205 5.77-3.102 12.929-3.48 18.773-0.47 7.248-0.722 27.752 5.863 31.96 13.060 2.161 31.282-45.433 36.157-56.341-9.897-15.922-6.173-35.242 14.24-38.998 8.293-1.526 34.247 4.568 23.806 15.408-8.181 3.917-22.875-11.88-26.783 1.66-0.941 3.257 2.121 8.062 4.331 10.334 12.633 12.993 25.991 21.275 35.716 37.13 3.576-1.199 9.76-3.014 12.349-5.424 0.581-5.419 0.953-11.409 0.786-16.888-0.414-13.735 3.106-26.701 3.416-40.367-9.982 0.487-15.119 2.017-23.1-4.122-7.397-17.128 14.058-11.424 24.804-12.209l1.106-0.086c1.113-9.886 7.419-52.175 12.319-57.547zM963.455 553.41l7.003-1.894c12.894-5.739 40.003-36.927 15.411-38.121-9.497 4.369-14.535 14.090-18.027 23.541-1.969 5.344-3.438 10.859-4.387 16.475zM823.377 596.551c14.542-0.197 18.914-9.932 18.386-23.278l-0.81-1.209-1.116 0.13c-8.101 2.444-23.412 8.939-19.416 20.414 0.737 2.118 1.217 2.57 2.955 3.943z"/>
<path fill="#FEF1D0" d="M372.744 543.631c-1.395 9.16-14.987 44.815-3.843 48.215 11.777-3.896 25.785-50.434 31.174-61.6 7.977-16.529 9.808-34.261 31.973-35.959 11.018-0.845 16.449 1.693 24.527 8.39 1.451 5.418 3.714 12.935-2.206 16.157-2.89 0.257-3.721-0.516-6.444-1.916-2.571-6.884-3.828-16.425-16.242-11.621-2.524 1.467-5.942 5.032-6.252 7.985-2.147 20.398 22.671 30.706 32.077 46.222 10.27 16.942 7.456 34.561-9.839 44.544-8.907 5.115-19.53 6.329-29.362 3.356-13.986-4.092-24.797-18.113-19.288-32.83 2.689-7.181 10.593-19.919 19.755-16.134 5.098 6.631-9.526 20.33-6.721 28.055 4.815 13.261 14.416 14.995 22.489 3.758 3.091-22.058-10.758-31.19-21.387-48.093-1.414-2.248-3.385-7.484-4.401-10.128-6.511 20.068-12.996 42.336-23.318 60.728-11.731 20.903-36.552 14.578-40.031-9.127-3.222-21.953 6.66-41.039 3.657-62.642-0.377-2.65-0.864-3.527-2.969-4.945-23.49-0.838-31.108 75.040-34.515 90.656-1.83 0.003-4.295 0.094-6.079-0.15-14.911-2.044-13.938-21.484-12.894-31.82-9.775 14.043-8.185 20.353-24.669 31.516-3.907 0.224-7.636 0.059-11.543-0.045-14.835-9.020-14.541-21.883-15.527-37.183-4.808 11.043-8.773 24.315-18.745 31.975-4.863 3.735-10.483 4.76-16.469 3.747-6.070-1.027-11.144-4.29-14.679-9.318-11.754-16.718-6.686-72.434-2.188-92.728 0.488-2.204 1.433-3.747 3.461-4.892 4.114-2.319 10.917-1.556 15.154 0.044 1.861 0.702 3.359 1.533 3.88 3.582 1.41 5.529-0.496 12.793-1.309 18.422-2.616 18.103-9.217 50.969-1.904 68.040 0.71 1.656 0.942 2.077 2.79 2.653 2.077 0.648 4.673-0.317 6.311-1.574 10.254-7.871 20.756-39.668 23.238-52.622 1.645-8.584 1.845-17.395 3.195-26.016 0.498-3.177 1.302-5.806 4.094-7.709 3.527-2.401 8.466-2.686 12.547-1.92 2.769 0.52 5.932 1.607 7.271 4.327 3.092 6.28-11.778 72.866-3.292 83.642 1.146 1.455 1.872 1.671 3.649 1.77 12.249-7.074 28.836-53.183 26.869-67.768-0.351-2.616 2.096-22.632 3.814-23.551 33.283-17.823 19.486 25.976 18.906 42.329 5.958-14.965 10.059-40.842 31.386-41.663 5.956-0.271 11.752 1.956 15.995 6.144 4.342 4.224 7.489 11.247 7.717 17.305-1.649 3.256-1.679 17.257 0.187 20.394z"/>
<path fill="#FEF1D0" d="M101.448 420.494c25.904-1.477 39.039 23.854 49.429 43.634 1.105 2.105 3.482 9.149 5.005 10.021 3.796 2.177 8.815-0.532 13.832 1.774 7.854 7.471-5.965 11.971-6.418 13.579-2.498 8.883 3.655 22.113 4.373 31.996 1.601 22.040-0.321 46.612-14.649 64.548-25.984 34.607-76.903 23.889-81.834-21.75-6.962 16.775-13.023 37.893-34.855 40.65-21.942 2.772-34.448-14.762-35.904-34.613-2.355-32.090 5.398-65.674 14.555-96.272 2.378-7.932 4.923-18.047 10.107-24.444 8.629-3.64 10.906-3.556 20.016-3.298 5.012 1.934 6.388 3.709 4.431 9.109-1.667 4.603-3.778 9.067-5.652 13.592-3.246 7.636-6.042 15.457-8.372 23.422-7.044 24.22-12.427 48.905-11.71 74.226 0.129 4.529 0.114 9.499 1.313 13.898 0.979 3.59 3.055 8.778 6.56 10.605 2.303 1.201 4.864 1.569 7.326 0.651 15.599-5.823 23.861-45.355 27.75-60.38 1.182-4.563 1.928-10.076 4.015-14.273 1.359-2.732 4.371-4.036 7.174-4.774 3.773-0.994 10.017-1.523 13.344 1.030 6.675 5.121 2.321 46.959 4.477 57.675 1.537 7.636 5.18 14.777 11.949 19.035 4.029 2.533 8.688 3.515 13.343 2.371 7.769-1.909 13.988-8.368 17.849-15.093 10.746-18.727 12.48-59.911 6.121-80.429-0.282-0.909-0.961-3.408-1.601-4.1-2.276-2.463-19.387-4.105-23.494-5.268-5.213-1.474-10.57-3.51-15.349-6.073-9.678-5.192-17.604-16.060-20.647-26.5-2.326-7.975-2.042-16.74 2.334-23.982 3.895-6.446 8.044-8.758 15.181-10.564zM135.047 476.222l1.772-0.283c-0.021-2.533-1.975-8.038-3.021-10.422-5.618-12.793-15.512-33.205-31.915-32.792-3.151 4.29-5.106 7.785-3.835 13.167 4.256 18.001 21.861 25.931 36.998 30.33z"/>
<path fill="#FEF1D0" d="M768.911 464.866c16.989-0.566 21.548 13.27 7.576 22.236-2.645 0.036-5.262-0.537-7.65-1.674-4.587-2.219-5.942-6.107-7.375-10.538 0.403-1.25 0.84-2.488 1.311-3.713 1.51-3.873 2.415-4.628 6.137-6.311z"/>
<path fill="#FEF1D0" d="M372.557 523.237c1.682 7.538 1.331 12.871 0.187 20.394-1.867-3.137-1.837-17.138-0.187-20.394z"/>
</svg>