<svg xmlns="http://www.w3.org/2000/svg" viewBox="280 30 460 500">
  <!-- Star outline -->
  <path fill="#112334" d="M507.066 163.371c4.556 1.772 5.926 4.429 8.114 8.62 6.299 12.067 12.891 23.972 19.235 36.018 12.781 24.596 25.906 49.012 39.374 73.24 13.314 3.708 119.308 19.391 123.749 23.337-1.602 5.237-77.613 83.228-88.675 96.761 0.631 20.075 21.607 120.704 17.75 130.475-0.616 1.56-0.273 1.013-1.933 1.838-6.402-2.116-21.379-10.339-28.587-13.841l-81.143-40.387-6.703-3.628c-7.329 1.21-17.816 7.944-25.019 11.56l-51.384 25.369c-6.634 3.322-35.967 20.839-40.305 14.255-0.443-7.388 2.926-26.041 4.24-33.961 4.389-26.452 8.177-66.001 15.329-90.822-7.794-16.316-32.93-38.094-45.169-52.064-12.709-14.507-26.558-28.796-39.764-42.851-1.774-1.889-1.669-1.665-1.408-3.935 9.783-9.708 99.208-16.174 119.72-22.48 6.876-18.259 52.204-107.584 62.578-117.503zM433.806 498.871c-4.123-2.664-8.49-2.071-12.627-0.135-3.222 4.007-5.964 7.222-8.635 11.653 7.39-3.253 14.5-7.107 21.262-11.518zM661.72 307.311c-4.684-1.345-16.608-2.979-21.895-3.848l-2.764 2.393c1.677 4.915 14.81 1.732 18.848 3.029 2.003 0.645 4.009-0.54 5.811-1.574zM404.787 501.976c3.913-4.224 6.003-6.636 9.412-11.284-0.283-4.033 0.336-4.053-1.56-6.989-2.491 1.266-4.413 5.384-6.459 8.3-0.115 2.785-0.939 7.089-1.392 9.973z" />
  <!-- Star facets -->
  <path fill="#e4b067" d="M511.83 188.894c2.248 2.193 47.819 88.045 51.258 95.55-8.338 12.473-20.419 28.068-29.518 40.814-7.124 9.753-14.047 19.649-20.765 29.688l-0.974-166.052z" />
  <path fill="#e4b067" d="M512.98 384.219c3.792 3.768 22.095 30.176 26.709 36.483 22.341 30.118 44.459 60.404 66.347 90.854-6.239-1.509-25.297-11.469-31.974-14.811-20.58-10.236-41.071-20.646-61.472-31.23-0.184-25.308-0.624-56.22 0.39-81.295z" />
  <path fill="#e4b067" d="M501.014 191.637c1.172 4.917 0.749 45.178 0.752 53.103 0.030 35.858 0.238 71.717 0.626 107.575-4.925-7.979-13.703-19.368-19.45-27.237-8.378-12.475-21.755-29.067-28.776-41.172 13.837-30.162 31.528-62.557 46.848-92.269z" />
  <path fill="#e4b067" d="M665.818 319.748l0.637 1.635c-1.894 3.486-4.955 3.941-9.069 6.704l3.705 1.38c0.46-1.44-57.327 62.144-60.636 65.999-15.752-6.472-31.608-12.69-47.56-18.649-8.943-3.364-17.997-6.424-27.146-9.176 7.25-2.087 15.756-4.882 22.801-7.558 38.257-14.532 79.408-25.149 117.269-40.336z" />
  <path fill="#e4b067" d="M522.323 376.969c7.913 0.892 66.648 24.893 76.559 28.988 1.1 11.415 3.475 23.447 5.253 34.853 3.227 21.178 6.582 42.337 10.063 63.473-3.295-2.454-20.605-27.123-24.022-31.825-22.945-31.57-46.218-62.999-67.851-95.489z" />
  <path fill="#e4b067" d="M440.794 291.943c2.478-0.478 1.663-0.387 4.224-0.135 15.784 18.682 35.064 47.417 50.5 67.731-23.326-9.599-45.606-17.028-69.42-25.105-28.199-9.109-51.553-18.677-81.040-27.251 30.594-5.718 64.845-10.663 95.736-15.24z" />
  <path fill="#e4b067" d="M502.317 381.969c-1.686 19.1-1.259 63.741-0.771 83.733-10.301 6.169-55.987 29.46-66.975 33.453l-0.764-0.285c-4.123-2.664-8.49-2.071-12.627-0.135 1.459-4.047 15.13-21.985 18.729-27.067 10.098-14.54 20.297-29.012 30.597-43.411 10.862-15.1 22.376-30.291 31.811-46.288z" />
  <path fill="#e4b067" d="M571.466 291.037c18.966 4.773 48.55 9.366 68.359 12.426l-2.764 2.393c1.677 4.915 14.81 1.732 18.848 3.029 2.003 0.645 4.009-0.54 5.811-1.574l2.968 0.409 0.682 0.924c-1.942 1.754-132.052 45.904-142.843 49.704 15.845-22.773 32.163-45.214 48.938-67.311z" />
  <path fill="#e4b067" d="M352.264 319.477c20.622 6.479 42.201 15.424 62.777 22.445 25.145 8.581 50.415 16.713 75.423 25.654-5.949 1.983-12.816 4.835-18.743 7.122-16.599 6.767-33.754 13.34-50.458 19.929-23.405-24.675-46.407-49.729-68.999-75.15z" />
  <path fill="#e4b067" d="M420.261 406.406c7.024-3.407 19.936-8.023 27.466-10.925 15.571-5.963 31.101-12.036 46.588-18.217-3.44 5.566-8.163 11.899-12.090 17.192-23.326 31.426-44.65 64.916-68.026 96.236-0.283-4.033 0.336-4.053-1.56-6.989-2.491 1.266-4.413 5.384-6.459 8.3 0.381-7.49 4.117-28.364 5.594-36.604 2.65-14.789 5.043-34.931 8.488-48.993z" />
  <path fill="#f3c68e" opacity="0.505882" d="M639.825 303.462c5.288 0.869 17.211 2.503 21.895 3.848-1.802 1.034-3.808 2.22-5.811 1.574-4.039-1.298-17.171 1.886-18.848-3.029l2.764-2.393z" />
  <path fill="#f3c68e" opacity="0.00784314" d="M406.179 492.002c2.046-2.916 3.969-7.033 6.459-8.3 1.896 2.937 1.277 2.956 1.56 6.989-3.409 4.647-5.499 7.059-9.412 11.284 0.453-2.884 1.277-7.189 1.392-9.973z" />
  <!-- Rays -->
  <path fill="#112334" d="M423.423 78.751c1.056 0.29 1.765 0.715 2.767 1.198 3.747 4.953 32.301 71.002 33.226 76.324-1.38 3.278-1.167 2.361-4.653 4.744-0.54-0.29-2.897-1.613-3.043-1.947-4.569-10.309-34.366-69.146-33.973-75.044 2.031-3.715 1.648-2.68 5.676-5.275z" />
  <path fill="#112334" d="M504.496 40.986c2.667 0.294 2.828 0.339 5.37 1.209 1.079 1.44 1.831 1.789 1.849 3.656 0.25 27.314 0.549 54.824-0.268 82.128-0.054 1.819-1.655 3.762-2.706 5.12-3.421-0.85-4.131-0.999-6.099-3.402-0.628-3.685-1.312-18.639-0.894-22.315 1.433-12.632-2.863-57.182 2.748-66.394z" />
  <path fill="#112334" d="M590.208 78.709c1.954 1.314 5.938 5.272 4.714 7.56-6.295 11.766-26.252 68.126-34.758 75.107-1.392-0.509-2.648-1.165-3.995-1.807-0.679-1.060-1.7-2.134-1.114-3.682 9.052-23.896 20.090-47.614 29.672-71.441 0.924-2.3 3.834-4.492 5.482-5.737z" />
  <path fill="#112334" d="M313.572 204.778c2.109 0.526 8.077 2.274 9.819 3.306 7.299 4.326 35.453 12.896 38.41 20.013-0.194 3.145-1.37 4.151-3.269 6.69-4.924-0.152-44.698-17.3-46.745-22.051-0.229-3.792 0.248-4.317 1.784-7.958z" />
  <path fill="#112334" d="M699.978 207.721c2.911 0.22 4.871 0.903 7.166 2.758l0.052 1.714c-3.374 7.229-33.697 16.335-43.192 19.989-3.803-0.063-5.783 0.058-8.3-3.031l0.28-1.816c4.737-7.024 35.206-17.117 43.994-19.615z" />
  <path fill="#112334" d="M351.245 125.527c1.513 0.278 4.801 0.864 5.833 1.817 7.070 6.536 26.795 22.116 28.108 30.867-1.2 3.498-0.488 2.267-3.869 4.716-6.935-1.623-33.161-25.708-33.634-33.523 1.266-3.369 0.191-2.057 3.561-3.876z" />
  <path fill="#112334" d="M661.531 120.684c1.436 0.098 2.531 0.516 3.956 0.904 2.496 2.54 1.74 1.055 2.256 4.661-3.26 10.073-22.709 25.241-30.804 34.51l-0.696 0.813c-1.996 0.21-1.704 0.061-3.768-0.346-3.591-3.617-1.452-7.484 1.256-10.934 8.046-10.245 18.369-20.732 27.799-29.609z" />
  <!-- Sparkle dots -->
  <path fill="#112334" d="M404.164 179.019c12.424 2.47 11.969 14.033-0.292 18.798-10.885-5.842-15.822-16.571 0.292-18.798z" />
  <path fill="#112334" d="M604.689 179.697c13.605-1.261 17.458 5.657 9.134 16.965-10.953 1.723-18.747-7.993-9.134-16.965z" />
  <path fill="#112334" d="M690.507 91.742c2.582 0.796 5.123 5.256 6.874 7.721-1.525 4.647-1.516 5.214-4.801 7.483-3.607-0.826-6.676-2.26-7.675-6.173 0.887-4.429 2.464-5.104 5.602-9.031z" />
  <path fill="#112334" d="M299.314 161.389l1.595 0.017c4.049 0.005 7.95-0.432 10.647 3.119 0.509 3.434 0.446 2.235-1.426 5.9-2.157 2.081-5.487 2.545-8.268 1.744-2.797-3.14-2.279-6.295-2.548-10.78z" />
  <path fill="#112334" d="M704.311 165.454l7.784 7.128c-2.489 2.325-5.254 5.466-7.614 8.004-2.762-2.293-5.197-5.044-7.673-7.661l7.504-7.47z" />
  <path fill="#112334" d="M364.195 86.68c1.286 0.675 3.35 2.129 3.832 3.537 2.328 6.802-0.194 7.983-5.137 9.218-2.65-1.345-4.882-4.506-4.292-7.661 0.546-2.926 3.171-3.671 5.597-5.093z" />
  <path fill="#112334" d="M453.762 39.394c2.905 0.673 5.226 1.676 6.542 4.497-0.581 4.238-0.974 3.507-4.033 7.446-1.154-0.177-2.524-0.476-3.456-1.286-5.401-4.693-3.155-6.827 0.948-10.657z" />
  <path fill="#112334" d="M645.153 85.66c3.631 0.966 5.041 3.105 5.676 6.573-1.212 3.274-0.602 2.151-3.881 4.465l-2.94 0.29c-4.635-4.114-2.113-7.691 1.146-11.329z" />
  <path fill="#112334" d="M322.563 96.391c2.384-0.54 4.78 0.855 5.489 3.196s-0.511 4.829-2.793 5.704c-1.63 0.623-3.472 0.285-4.773-0.878s-1.844-2.954-1.406-4.644c0.437-1.69 1.782-2.993 3.484-3.378z" />
  <path fill="#112334" d="M561.29 40.811c2.29-0.722 4.735 0.53 5.489 2.811s-0.469 4.742-2.739 5.525c-1.495 0.514-3.152 0.185-4.336-0.862s-1.714-2.652-1.387-4.2c0.329-1.546 1.464-2.797 2.973-3.274z" />
  <path fill="#112334" d="M388.060 116.498c1.681-1.52 4.257-1.464 5.87 0.129s1.7 4.168 0.199 5.867c-1.048 1.188-2.667 1.697-4.207 1.324s-2.744-1.564-3.136-3.098c-0.39-1.534 0.1-3.159 1.273-4.222z" />
</svg>
